<svg xmlns="http://www.w3.org/2000/svg" version="1.1" xmlns:xlink="http://www.w3.org/1999/xlink" xmlns:svgjs="http://svgjs.dev/svgjs" width="1500" height="1500" viewBox="0 0 1500 1500"><rect width="1500" height="1500" fill="#062443"></rect><g transform="matrix(0.6666666666666666,0,0,0.6666666666666666,249.39502944268662,620.4141195555496)"><svg viewBox="0 0 396 103" data-background-color="#062443" preserveAspectRatio="xMidYMid meet" height="390" width="1500" xmlns="http://www.w3.org/2000/svg" xmlns:xlink="http://www.w3.org/1999/xlink"><g id="tight-bounds" transform="matrix(1,0,0,1,0.23956834069610977,-0.16405505469853665)"><svg viewBox="0 0 395.52 103.32573598322556" height="103.32573598322556" width="395.52"><g><svg viewBox="0 0 550.6336490065319 143.84766140961014" height="103.32573598322556" width="395.52"><g transform="matrix(1,0,0,1,155.11364900653192,19.880537864859292)"><svg viewBox="0 0 395.52 104.08658567989156" height="104.08658567989156" width="395.52"><g id="textblocktransform"><svg viewBox="0 0 395.52 104.08658567989156" height="104.08658567989156" width="395.52" id="textblock"><g><svg viewBox="0 0 395.52 57.8573249795696" height="57.8573249795696" width="395.52"><g transform="matrix(1,0,0,1,0,0)"><svg width="395.52" viewBox="1.56 -38.87 268.86 39.33" height="57.8573249795696" data-palette-color="url(#ec024954-5569-4fc5-a812-d05b80fafc7c)"></svg></g></svg></g><g transform="matrix(1,0,0,1,75.54432,71.51605083144648)"><svg viewBox="0 0 244.43135999999998 32.570534848445085" height="32.570534848445085" width="244.43135999999998"><g transform="matrix(1,0,0,1,0,0)"><svg width="244.43135999999998" viewBox="1.12 -39.38 372.09 49.59" height="32.570534848445085" data-palette-color="url(#1bf2ee64-e9ac-49d0-9a90-cab88c2bba90)"></svg></g></svg></g></svg></g></svg></g><g><svg viewBox="0 0 141.45492315465503 143.84766140961014" height="143.84766140961014" width="141.45492315465503"><g><svg xmlns="http://www.w3.org/2000/svg" xmlns:xlink="http://www.w3.org/1999/xlink" version="1.1" x="0" y="0" viewBox="2 2 59.00196990419953 60" style="enable-background:new 0 0 64 64;" xml:space="preserve" height="143.84766140961014" width="141.45492315465503" class="icon-icon-0" data-fill-palette-color="accent" id="icon-0"><path d="M49 55A7 7 0 0 0 56 62V54H49z" fill="#bc4277" data-fill-palette-color="accent"></path><path d="M57.979 42.411C57.766 45.528 55.17 48 52 48V46C54.206 46 56 44.206 56 42A5 5 0 0 0 51 37C50.631 37 50.274 37.046 49.929 37.121A6 6 0 0 0 44 32C41.682 32 39.686 33.321 38.689 35.246 41.177 35.978 43 38.278 43 41H41C41 38.794 39.206 37 37 37A5 5 0 0 0 32 42 5 5 0 0 0 32 52H37C37 50.346 35.654 49 34 49V47C36.757 47 39 49.243 39 52H42C42 50.796 42.36 49.675 42.973 48.735 42.836 47.206 41.563 46 40 46V44A5.01 5.01 0 0 1 44.607 47.057 5.96 5.96 0 0 1 48 46V48C45.794 48 44 49.794 44 52H56A4.998 4.998 0 0 0 57.979 42.411M49 44C49 42.346 47.654 41 46 41V39C48.757 39 51 41.243 51 44z" fill="#bc4277" data-fill-palette-color="accent"></path><rect x="44" y="54" width="2" height="2" fill="#bc4277" data-fill-palette-color="accent"></rect><rect x="40" y="54" width="2" height="2" fill="#bc4277" data-fill-palette-color="accent"></rect><rect x="36" y="54" width="2" height="2" fill="#bc4277" data-fill-palette-color="accent"></rect><path d="M40 29A4 4 0 0 0 44 25V6A4 4 0 0 0 40 2H6A4 4 0 0 0 2 6V25A4 4 0 0 0 6 29zM4 6C4 4.897 4.897 4 6 4H40C41.103 4 42 4.897 42 6V23H4z" fill="#bc4277" data-fill-palette-color="accent"></path><path d="M35 7A2 2 0 0 0 33.039 9.387L27.637 14.114A2 2 0 0 0 27 14 2 2 0 0 0 26.214 14.161L20.976 10.233C20.986 10.155 21 10.08 21 10A2 2 0 1 0 17.039 10.387L11.637 15.114A2 2 0 0 0 11 15 2 2 0 1 0 12.961 16.613L18.363 11.886C18.564 11.955 18.776 12 19 12A2 2 0 0 0 19.786 11.839L25.024 15.767C25.014 15.845 25 15.92 25 16A2 2 0 1 0 28.961 15.613L34.363 10.886C34.564 10.955 34.776 11 35 11A2 2 0 1 0 35 7" fill="#bc4277" data-fill-palette-color="accent"></path><path d="M52 13H46V15H52C53.654 15 55 16.346 55 18V31.586L52.707 29.293 51.293 30.707 56 35.414 60.707 30.707 59.293 29.293 57 31.586V18C57 15.243 54.757 13 52 13" fill="#bc4277" data-fill-palette-color="accent"></path><path d="M9 46V36.414L11.293 38.707 12.707 37.293 8 32.586 3.293 37.293 4.707 38.707 7 36.414V46C7 48.757 9.243 51 12 51H24V49H12C10.346 49 9 47.654 9 46" fill="#bc4277" data-fill-palette-color="accent"></path><polygon points="19.429,31 18.286,35 15,35 15,37 31,37 31,35 27.714,35 26.571,31 " fill="#bc4277" data-fill-palette-color="accent"></polygon></svg></g></svg></g></svg></g><defs></defs><mask id="d8b56c65-9c36-4009-bebc-3915d33d96ac"><g id="SvgjsG2356"><svg viewBox="0 0 395.52 103.32573598322556" height="103.32573598322556" width="395.52"><g><svg viewBox="0 0 550.6336490065319 143.84766140961014" height="103.32573598322556" width="395.52"><g transform="matrix(1,0,0,1,155.11364900653192,19.880537864859292)"><svg viewBox="0 0 395.52 104.08658567989156" height="104.08658567989156" width="395.52"><g id="SvgjsG2355"><svg viewBox="0 0 395.52 104.08658567989156" height="104.08658567989156" width="395.52" id="SvgjsSvg2354"><g><svg viewBox="0 0 395.52 57.8573249795696" height="57.8573249795696" width="395.52"><g transform="matrix(1,0,0,1,0,0)"><svg width="395.52" viewBox="1.56 -38.87 268.86 39.33" height="57.8573249795696" data-palette-color="url(#ec024954-5569-4fc5-a812-d05b80fafc7c)"><path d="M40.38 0L26.78 0.02 13.43-22.22 13.43-8.42 17.33-8.42 17.33 0 1.56 0 1.56-8.42 5.47-8.42 5.47-30.44 1.56-30.44 1.56-38.87 19.02-38.87 32.42-16.63 32.42-30.44 28.52-30.44 28.52-38.87 44.29-38.87 44.29-30.44 40.38-30.44 40.38 0ZM61.52 0.44L61.52 0.44Q54.27 0.44 50.16-3.21 46.04-6.86 46.04-13.33L46.04-13.33Q46.04-17.41 47.84-20.39 49.63-23.36 52.85-24.99 56.08-26.61 60.35-26.61L60.35-26.61Q64.52-26.61 67.5-25.09 70.48-23.56 72.06-20.84 73.63-18.12 73.63-14.55L73.63-14.55Q73.63-13.72 73.56-12.95 73.48-12.18 73.39-11.55L73.39-11.55 57.69-11.55Q58.1-9.06 59.95-7.97 61.79-6.88 64.45-6.88L64.45-6.88Q66.7-6.88 68.74-7.68 70.77-8.47 72.19-9.67L72.19-9.67 72.85-9.38 72.85-2.37Q71.68-1.56 69.82-0.93 67.97-0.29 65.81 0.07 63.64 0.44 61.52 0.44ZM60.98-20.61L60.98-20.61Q59.35-20.61 58.52-19.34 57.69-18.07 57.59-15.8L57.59-15.8 64.38-15.8Q64.28-18.07 63.46-19.34 62.64-20.61 60.98-20.61ZM88.4 0.46L88.4 0.46Q79.37 0.46 79.37-9.69L79.37-9.69 79.37-18.53 75.95-18.53 75.95-25.2 91.08-26.64 91.08-9.67Q91.08-8.18 91.74-7.52 92.4-6.86 93.43-6.86L93.43-6.86Q95.26-6.86 96.26-8.74L96.26-8.74 96.26-18.53 94.06-18.53 94.06-25.2 107.98-26.64 107.98-7.32 111.4-7.32 111.4 0 96.5 0 96.5-2.86Q95.04-1.29 93.02-0.42 91.01 0.46 88.4 0.46ZM135.25 0L114.37 0 114.37-7.32 117.91-7.32 117.91-18.53 114.37-18.53 114.37-25.2 129.39-26.64 129.39-21.63Q130.83-24.29 133.37-25.51 135.91-26.73 138.22-26.73L138.22-26.73 138.22-16.24Q136.03-16.99 134.2-16.99L134.2-16.99Q132.98-16.99 131.63-16.56 130.29-16.14 129.63-15.41L129.63-15.41 129.63-7.32 135.25-7.32 135.25 0ZM148.99 0.44L148.99 0.44Q146.47 0.44 144.51-0.57 142.54-1.59 141.43-3.37 140.32-5.15 140.32-7.47L140.32-7.47Q140.32-11.08 143.11-13.23 145.89-15.38 150.53-15.38L150.53-15.38Q152.14-15.38 153.6-15.19 155.07-14.99 156.58-14.53L156.58-14.53 156.58-15.06Q156.58-17.29 155.23-18.29 153.87-19.29 150.89-19.29L150.89-19.29Q148.74-19.29 146.55-18.73 144.35-18.16 142.54-17.16L142.54-17.16 141.88-17.46 141.88-24.58Q144.45-25.59 147.71-26.1 150.97-26.61 154.26-26.61L154.26-26.61Q161.56-26.61 164.93-24.17 168.3-21.73 168.3-16.33L168.3-16.33 168.3-7.32 171.47-7.32 171.47 0 158.14 0 156.95-3.83Q155.8-1.83 153.69-0.7 151.58 0.44 148.99 0.44ZM154.09-5.81L154.09-5.81Q154.75-5.81 155.47-6.04 156.19-6.27 156.58-6.67L156.58-6.67 156.58-10.74Q155.97-11.01 155.35-11.11 154.73-11.21 154.19-11.21L154.19-11.21Q152.94-11.21 152.1-10.47 151.26-9.74 151.26-8.52L151.26-8.52Q151.26-7.28 152.04-6.54 152.82-5.81 154.09-5.81ZM192.93 0L173.64 0 173.64-7.32 177.43-7.32 177.43-29.83 173.64-29.83 173.64-36.5 189.15-38.09 189.15-7.32 192.93-7.32 192.93 0ZM212.73 0L195.03 0 195.03-8.42 198.94-8.42 198.94-30.44 195.03-30.44 195.03-38.87 212.75-38.87Q223.57-38.87 229.21-33.9 234.85-28.93 234.85-19.38L234.85-19.38Q234.85-9.86 229.23-4.93 223.62 0 212.73 0L212.73 0ZM211.63-30.69L211.63-8.18 212.97-8.18Q217.27-8.18 219.13-10.78 220.98-13.38 220.98-19.46L220.98-19.46Q220.98-25.51 219.13-28.1 217.27-30.69 212.97-30.69L212.97-30.69 211.63-30.69ZM260.55 0L247.2 0 239.66-18.85 237.34-18.85 237.34-26.17 254.99-26.17 254.99-18.85 252.06-18.85 256.31-6.88 260.97-18.85 258.04-18.85 258.04-26.17 270.42-26.17 270.42-18.85 268.1-18.85 260.55 0Z" opacity="1" transform="matrix(1,0,0,1,0,0)" fill="white" class="wordmark-text-0" id="SvgjsPath2353"></path></svg></g></svg></g><g transform="matrix(1,0,0,1,75.54432,71.51605083144648)"><svg viewBox="0 0 244.43135999999998 32.570534848445085" height="32.570534848445085" width="244.43135999999998"><g transform="matrix(1,0,0,1,0,0)"><svg width="244.43135999999998" viewBox="1.12 -39.38 372.09 49.59" height="32.570534848445085" data-palette-color="url(#1bf2ee64-e9ac-49d0-9a90-cab88c2bba90)"><path d="M34.3 0L7.45 0 7.45-8.42 14.53-8.42 14.53-30.93 10.16-30.93 9.18-22.71 1.12-22.71 1.12-38.87 40.63-38.87 40.63-22.71 32.57-22.71 31.59-30.93 27.22-30.93 27.22-8.42 34.3-8.42 34.3 0ZM56.32 0.44L56.32 0.44Q49.07 0.44 44.96-3.21 40.84-6.86 40.84-13.33L40.84-13.33Q40.84-17.41 42.64-20.39 44.43-23.36 47.65-24.99 50.88-26.61 55.15-26.61L55.15-26.61Q59.32-26.61 62.3-25.09 65.28-23.56 66.86-20.84 68.43-18.12 68.43-14.55L68.43-14.55Q68.43-13.72 68.36-12.95 68.28-12.18 68.19-11.55L68.19-11.55 52.49-11.55Q52.9-9.06 54.75-7.97 56.59-6.88 59.25-6.88L59.25-6.88Q61.5-6.88 63.54-7.68 65.57-8.47 66.99-9.67L66.99-9.67 67.65-9.38 67.65-2.37Q66.48-1.56 64.62-0.93 62.77-0.29 60.61 0.07 58.44 0.44 56.32 0.44ZM55.78-20.61L55.78-20.61Q54.15-20.61 53.32-19.34 52.49-18.07 52.39-15.8L52.39-15.8 59.18-15.8Q59.08-18.07 58.26-19.34 57.44-20.61 55.78-20.61ZM85.93 0.44L85.93 0.44Q79 0.44 75.01-3.21 71.02-6.86 71.02-13.33L71.02-13.33Q71.02-17.38 72.71-20.36 74.41-23.34 77.25-24.98 80.1-26.61 83.52-26.61L83.52-26.61Q86.01-26.61 87.89-25.74 89.77-24.88 91.08-23.36L91.08-23.36 92.06-26.17 97.46-26.17 97.46-15.33 90.42-15.33Q90.23-17.43 89.28-18.47 88.33-19.51 86.88-19.51L86.88-19.51Q85.25-19.51 83.97-18.1 82.69-16.7 82.69-13.43L82.69-13.43Q82.69-10.03 84.47-8.58 86.25-7.13 88.98-7.13L88.98-7.13Q91.04-7.13 92.95-7.93 94.87-8.74 96.26-9.91L96.26-9.91 96.92-9.62 96.92-2.37Q95.77-1.56 93.96-0.93 92.16-0.29 90.06 0.07 87.96 0.44 85.93 0.44ZM117.42 0L99.97 0 99.97-7.32 103.51-7.32 103.51-29.98 99.97-29.98 99.97-36.65 115.23-38.09 115.23-23.44Q118.43-26.61 123.65-26.61L123.65-26.61Q128.07-26.61 130.13-24.11 132.19-21.61 132.19-16.58L132.19-16.58 132.19-7.32 135.61-7.32 135.61 0 120.48 0 120.48-16.58Q120.48-17.99 119.87-18.64 119.26-19.29 118.25-19.29L118.25-19.29Q117.42-19.29 116.61-18.8 115.79-18.31 115.23-17.46L115.23-17.46 115.23-7.32 117.42-7.32 117.42 0ZM156.04 0L138.59 0 138.59-7.32 142.13-7.32 142.13-18.53 138.59-18.53 138.59-25.2 153.6-26.64 153.6-23.32Q155.12-24.9 157.39-25.77 159.66-26.64 162.27-26.64L162.27-26.64Q166.69-26.64 168.75-24.13 170.82-21.63 170.82-16.6L170.82-16.6 170.82-7.32 174.23-7.32 174.23 0 159.1 0 159.1-16.6Q159.1-18.02 158.49-18.66 157.88-19.31 156.87-19.31L156.87-19.31Q156.04-19.31 155.23-18.82 154.41-18.33 153.85-17.48L153.85-17.48 153.85-7.32 156.04-7.32 156.04 0ZM191.52 0.44L191.52 0.44Q186.93 0.44 183.59-1.2 180.26-2.83 178.47-5.86 176.67-8.89 176.67-13.06L176.67-13.06Q176.67-17.26 178.47-20.29 180.26-23.32 183.59-24.96 186.93-26.61 191.52-26.61L191.52-26.61Q196.11-26.61 199.44-24.96 202.77-23.32 204.57-20.29 206.36-17.26 206.36-13.06L206.36-13.06Q206.36-8.89 204.57-5.86 202.77-2.83 199.44-1.2 196.11 0.44 191.52 0.44ZM191.52-6.67L191.52-6.67Q194.81-6.67 194.81-13.09L194.81-13.09Q194.81-19.51 191.52-19.51L191.52-19.51Q188.22-19.51 188.22-13.09L188.22-13.09Q188.22-6.67 191.52-6.67ZM227.72 0L208.43 0 208.43-7.32 212.22-7.32 212.22-29.83 208.43-29.83 208.43-36.5 223.94-38.09 223.94-7.32 227.72-7.32 227.72 0ZM244.64 0.44L244.64 0.44Q240.05 0.44 236.71-1.2 233.38-2.83 231.59-5.86 229.79-8.89 229.79-13.06L229.79-13.06Q229.79-17.26 231.59-20.29 233.38-23.32 236.71-24.96 240.05-26.61 244.64-26.61L244.64-26.61Q249.23-26.61 252.56-24.96 255.89-23.32 257.69-20.29 259.48-17.26 259.48-13.06L259.48-13.06Q259.48-8.89 257.69-5.86 255.89-2.83 252.56-1.2 249.23 0.44 244.64 0.44ZM244.64-6.67L244.64-6.67Q247.93-6.67 247.93-13.09L247.93-13.09Q247.93-19.51 244.64-19.51L244.64-19.51Q241.34-19.51 241.34-13.09L241.34-13.09Q241.34-6.67 244.64-6.67ZM275.59-6.71L283.33-6.71Q288.09-6.71 290.52-4.79 292.95-2.86 292.95 0.71L292.95 0.71Q292.95 3.81 290.84 5.93 288.73 8.06 284.94 9.13 281.16 10.21 276.1 10.21L276.1 10.21Q271.1 10.21 267.96 9.31 264.82 8.42 263.37 6.95 261.92 5.47 261.92 3.74L261.92 3.74Q261.92 2.42 262.91 1.34 263.9 0.27 265.43-0.22L265.43-0.22Q263.68-1.64 263.68-3.93L263.68-3.93Q263.68-5.96 265.13-7.34 266.58-8.72 269.27-9.38L269.27-9.38Q266-10.33 263.83-12.35 261.67-14.38 261.67-17.5L261.67-17.5Q261.67-21.61 265.46-24.11 269.24-26.61 276.52-26.61L276.52-26.61Q280.35-26.61 283.38-25.63L283.38-25.63 293.53-26.64 293.53-19.07 290.46-19.07Q290.63-18.31 290.63-17.5L290.63-17.5Q290.63-13.4 286.72-10.93 282.82-8.45 275.59-8.45L275.59-8.45Q273.83-8.45 273.83-7.59L273.83-7.59Q273.83-6.71 275.59-6.71L275.59-6.71ZM276.52-21.44L276.52-21.44Q275.03-21.46 274-20.42 272.98-19.38 272.98-17.55L272.98-17.55Q272.98-15.7 273.99-14.65 275-13.6 276.52-13.62L276.52-13.62Q278.03-13.65 279.04-14.69 280.06-15.72 280.06-17.55L280.06-17.55Q280.06-19.36 279.04-20.39 278.03-21.41 276.52-21.44ZM269.34 2.37L269.34 2.37Q269.34 3.83 270.85 4.68 272.37 5.52 275.37 5.52L275.37 5.52Q278.64 5.52 280.08 4.76 281.52 4 281.52 2.83L281.52 2.83Q281.52 1.61 279.77 1.61L279.77 1.61 272.27 1.61Q270.78 1.61 269.51 1.42L269.51 1.42Q269.34 1.88 269.34 2.37ZM314.77 0L295.49 0 295.49-7.32 299.27-7.32 299.27-18.53 295.49-18.53 295.49-25.2 310.99-26.64 310.99-7.32 314.77-7.32 314.77 0ZM305.13-28.27L305.13-28.27Q301.93-28.27 300.01-29.81 298.1-31.35 298.1-33.89L298.1-33.89Q298.1-36.43 300-37.9 301.91-39.38 305.15-39.38L305.15-39.38Q308.47-39.38 310.32-37.94 312.16-36.5 312.16-33.89L312.16-33.89Q312.16-31.3 310.27-29.79 308.38-28.27 305.13-28.27ZM332.32 0.44L332.32 0.44Q325.07 0.44 320.96-3.21 316.85-6.86 316.85-13.33L316.85-13.33Q316.85-17.41 318.64-20.39 320.43-23.36 323.66-24.99 326.88-26.61 331.15-26.61L331.15-26.61Q335.33-26.61 338.31-25.09 341.28-23.56 342.86-20.84 344.43-18.12 344.43-14.55L344.43-14.55Q344.43-13.72 344.36-12.95 344.29-12.18 344.19-11.55L344.19-11.55 328.49-11.55Q328.91-9.06 330.75-7.97 332.59-6.88 335.25-6.88L335.25-6.88Q337.5-6.88 339.54-7.68 341.58-8.47 342.99-9.67L342.99-9.67 343.65-9.38 343.65-2.37Q342.48-1.56 340.62-0.93 338.77-0.29 336.61 0.07 334.45 0.44 332.32 0.44ZM331.79-20.61L331.79-20.61Q330.15-20.61 329.32-19.34 328.49-18.07 328.39-15.8L328.39-15.8 335.18-15.8Q335.08-18.07 334.26-19.34 333.45-20.61 331.79-20.61ZM362.47 0.44L362.47 0.44Q359.98 0.44 357.64-0.15 355.29-0.73 353.49-1.83L353.49-1.83 352.73 0 347.36 0 347.36-9.18 353.61-9.18Q354.17-7.28 355.56-6.18 356.95-5.08 358.59-5.08L358.59-5.08Q360.74-5.08 360.74-6.69L360.74-6.69Q360.74-7.86 359.77-8.5 358.81-9.13 357.28-9.57 355.76-10.01 354.05-10.52 352.34-11.04 350.81-11.93 349.29-12.82 348.32-14.37 347.36-15.92 347.36-18.43L347.36-18.43Q347.36-20.7 348.57-22.56 349.78-24.41 352.23-25.52 354.68-26.64 358.4-26.64L358.4-26.64Q360.79-26.64 362.83-26.14 364.87-25.63 366.65-24.54L366.65-24.54 367.23-26.17 372.6-26.17 372.6-17.77 366.35-17.77Q365.72-19.63 364.54-20.5 363.35-21.36 361.98-21.36L361.98-21.36Q359.59-21.36 359.59-19.9L359.59-19.9Q359.59-18.87 360.58-18.27 361.57-17.68 363.12-17.24 364.67-16.8 366.4-16.24 368.14-15.67 369.69-14.72 371.24-13.77 372.23-12.18 373.21-10.6 373.21-8.06L373.21-8.06Q373.21-4.17 370.42-1.87 367.62 0.44 362.47 0.44Z" opacity="1" transform="matrix(1,0,0,1,0,0)" fill="black" class="slogan-text-1" id="SvgjsPath2352"></path></svg></g></svg></g></svg></g></svg></g><g><svg viewBox="0 0 141.45492315465503 143.84766140961014" height="143.84766140961014" width="141.45492315465503"><g><svg xmlns="http://www.w3.org/2000/svg" xmlns:xlink="http://www.w3.org/1999/xlink" version="1.1" x="0" y="0" viewBox="2 2 59.00196990419953 60" style="enable-background:new 0 0 64 64;" xml:space="preserve" height="143.84766140961014" width="141.45492315465503" class="icon-icon-0" data-fill-palette-color="accent" id="SvgjsSvg2351"><path d="M49 55A7 7 0 0 0 56 62V54H49z" fill="black"></path><path d="M57.979 42.411C57.766 45.528 55.17 48 52 48V46C54.206 46 56 44.206 56 42A5 5 0 0 0 51 37C50.631 37 50.274 37.046 49.929 37.121A6 6 0 0 0 44 32C41.682 32 39.686 33.321 38.689 35.246 41.177 35.978 43 38.278 43 41H41C41 38.794 39.206 37 37 37A5 5 0 0 0 32 42 5 5 0 0 0 32 52H37C37 50.346 35.654 49 34 49V47C36.757 47 39 49.243 39 52H42C42 50.796 42.36 49.675 42.973 48.735 42.836 47.206 41.563 46 40 46V44A5.01 5.01 0 0 1 44.607 47.057 5.96 5.96 0 0 1 48 46V48C45.794 48 44 49.794 44 52H56A4.998 4.998 0 0 0 57.979 42.411M49 44C49 42.346 47.654 41 46 41V39C48.757 39 51 41.243 51 44z" fill="black"></path><rect x="44" y="54" width="2" height="2" fill="black"></rect><rect x="40" y="54" width="2" height="2" fill="black"></rect><rect x="36" y="54" width="2" height="2" fill="black"></rect><path d="M40 29A4 4 0 0 0 44 25V6A4 4 0 0 0 40 2H6A4 4 0 0 0 2 6V25A4 4 0 0 0 6 29zM4 6C4 4.897 4.897 4 6 4H40C41.103 4 42 4.897 42 6V23H4z" fill="black"></path><path d="M35 7A2 2 0 0 0 33.039 9.387L27.637 14.114A2 2 0 0 0 27 14 2 2 0 0 0 26.214 14.161L20.976 10.233C20.986 10.155 21 10.08 21 10A2 2 0 1 0 17.039 10.387L11.637 15.114A2 2 0 0 0 11 15 2 2 0 1 0 12.961 16.613L18.363 11.886C18.564 11.955 18.776 12 19 12A2 2 0 0 0 19.786 11.839L25.024 15.767C25.014 15.845 25 15.92 25 16A2 2 0 1 0 28.961 15.613L34.363 10.886C34.564 10.955 34.776 11 35 11A2 2 0 1 0 35 7" fill="black"></path><path d="M52 13H46V15H52C53.654 15 55 16.346 55 18V31.586L52.707 29.293 51.293 30.707 56 35.414 60.707 30.707 59.293 29.293 57 31.586V18C57 15.243 54.757 13 52 13" fill="black"></path><path d="M9 46V36.414L11.293 38.707 12.707 37.293 8 32.586 3.293 37.293 4.707 38.707 7 36.414V46C7 48.757 9.243 51 12 51H24V49H12C10.346 49 9 47.654 9 46" fill="black"></path><polygon points="19.429,31 18.286,35 15,35 15,37 31,37 31,35 27.714,35 26.571,31 " fill="black"></polygon></svg></g></svg></g></svg></g><defs><mask></mask></defs></svg><rect width="395.52" height="103.32573598322556" fill="black" stroke="none" visibility="hidden"></rect></g></mask><linearGradient x1="0" x2="1" y1="0.548" y2="0.55" id="ec024954-5569-4fc5-a812-d05b80fafc7c"><stop stop-color="#ff6cab" offset="0"></stop><stop stop-color="#7366ff" offset="1"></stop></linearGradient><rect width="395.5208633186078" height="103.32811010939706" fill="url(#ec024954-5569-4fc5-a812-d05b80fafc7c)" mask="url(#d8b56c65-9c36-4009-bebc-3915d33d96ac)" data-fill-palette-color="primary"></rect><mask id="9a2901ce-8ffa-4214-986e-9b1173841f1c"><g id="SvgjsG2367"><svg viewBox="0 0 395.52 103.32573598322556" height="103.32573598322556" width="395.52"><g><svg viewBox="0 0 550.6336490065319 143.84766140961014" height="103.32573598322556" width="395.52"><g transform="matrix(1,0,0,1,155.11364900653192,19.880537864859292)"><svg viewBox="0 0 395.52 104.08658567989156" height="104.08658567989156" width="395.52"><g id="SvgjsG2366"><svg viewBox="0 0 395.52 104.08658567989156" height="104.08658567989156" width="395.52" id="SvgjsSvg2365"><g><svg viewBox="0 0 395.52 57.8573249795696" height="57.8573249795696" width="395.52"><g transform="matrix(1,0,0,1,0,0)"><svg width="395.52" viewBox="1.56 -38.87 268.86 39.33" height="57.8573249795696" data-palette-color="url(#ec024954-5569-4fc5-a812-d05b80fafc7c)"></svg></g></svg></g><g transform="matrix(1,0,0,1,75.54432,71.51605083144648)"><svg viewBox="0 0 244.43135999999998 32.570534848445085" height="32.570534848445085" width="244.43135999999998"><g transform="matrix(1,0,0,1,0,0)"><svg width="244.43135999999998" viewBox="1.12 -39.38 372.09 49.59" height="32.570534848445085" data-palette-color="url(#1bf2ee64-e9ac-49d0-9a90-cab88c2bba90)"><path d="M34.3 0L7.45 0 7.45-8.42 14.53-8.42 14.53-30.93 10.16-30.93 9.18-22.71 1.12-22.71 1.12-38.87 40.63-38.87 40.63-22.71 32.57-22.71 31.59-30.93 27.22-30.93 27.22-8.42 34.3-8.42 34.3 0ZM56.32 0.44L56.32 0.44Q49.07 0.44 44.96-3.21 40.84-6.86 40.84-13.33L40.84-13.33Q40.84-17.41 42.64-20.39 44.43-23.36 47.65-24.99 50.88-26.61 55.15-26.61L55.15-26.61Q59.32-26.61 62.3-25.09 65.28-23.56 66.86-20.84 68.43-18.12 68.43-14.55L68.43-14.55Q68.43-13.72 68.36-12.95 68.28-12.18 68.19-11.55L68.19-11.55 52.49-11.55Q52.9-9.06 54.75-7.97 56.59-6.88 59.25-6.88L59.25-6.88Q61.5-6.88 63.54-7.68 65.57-8.47 66.99-9.67L66.99-9.67 67.65-9.38 67.65-2.37Q66.48-1.56 64.62-0.93 62.77-0.29 60.61 0.07 58.44 0.44 56.32 0.44ZM55.78-20.61L55.78-20.61Q54.15-20.61 53.32-19.34 52.49-18.07 52.39-15.8L52.39-15.8 59.18-15.8Q59.08-18.07 58.26-19.34 57.44-20.61 55.78-20.61ZM85.93 0.44L85.93 0.44Q79 0.44 75.01-3.21 71.02-6.86 71.02-13.33L71.02-13.33Q71.02-17.38 72.71-20.36 74.41-23.34 77.25-24.98 80.1-26.61 83.52-26.61L83.52-26.61Q86.01-26.61 87.89-25.74 89.77-24.88 91.08-23.36L91.08-23.36 92.06-26.17 97.46-26.17 97.46-15.33 90.42-15.33Q90.23-17.43 89.28-18.47 88.33-19.51 86.88-19.51L86.88-19.51Q85.25-19.51 83.97-18.1 82.69-16.7 82.69-13.43L82.69-13.43Q82.69-10.03 84.47-8.58 86.25-7.13 88.98-7.13L88.98-7.13Q91.04-7.13 92.95-7.93 94.87-8.74 96.26-9.91L96.26-9.91 96.92-9.62 96.92-2.37Q95.77-1.56 93.96-0.93 92.16-0.29 90.06 0.07 87.96 0.44 85.93 0.44ZM117.42 0L99.97 0 99.97-7.32 103.51-7.32 103.51-29.98 99.97-29.98 99.97-36.65 115.23-38.09 115.23-23.44Q118.43-26.61 123.65-26.61L123.65-26.61Q128.07-26.61 130.13-24.11 132.19-21.61 132.19-16.58L132.19-16.58 132.19-7.32 135.61-7.32 135.61 0 120.48 0 120.48-16.58Q120.48-17.99 119.87-18.64 119.26-19.29 118.25-19.29L118.25-19.29Q117.42-19.29 116.61-18.8 115.79-18.31 115.23-17.46L115.23-17.46 115.23-7.32 117.42-7.32 117.42 0ZM156.04 0L138.59 0 138.59-7.32 142.13-7.32 142.13-18.53 138.59-18.53 138.59-25.2 153.6-26.64 153.6-23.32Q155.12-24.9 157.39-25.77 159.66-26.64 162.27-26.64L162.27-26.64Q166.69-26.64 168.75-24.13 170.82-21.63 170.82-16.6L170.82-16.6 170.82-7.32 174.23-7.32 174.23 0 159.1 0 159.1-16.6Q159.1-18.02 158.49-18.66 157.88-19.31 156.87-19.31L156.87-19.31Q156.04-19.31 155.23-18.82 154.41-18.33 153.85-17.48L153.85-17.48 153.85-7.32 156.04-7.32 156.04 0ZM191.52 0.44L191.52 0.44Q186.93 0.44 183.59-1.2 180.26-2.83 178.47-5.86 176.67-8.89 176.67-13.06L176.67-13.06Q176.67-17.26 178.47-20.29 180.26-23.32 183.59-24.96 186.93-26.61 191.52-26.61L191.52-26.61Q196.11-26.61 199.44-24.96 202.77-23.32 204.57-20.29 206.36-17.26 206.36-13.06L206.36-13.06Q206.36-8.89 204.57-5.86 202.77-2.83 199.44-1.2 196.11 0.44 191.52 0.44ZM191.52-6.67L191.52-6.67Q194.81-6.67 194.81-13.09L194.81-13.09Q194.81-19.51 191.52-19.51L191.52-19.51Q188.22-19.51 188.22-13.09L188.22-13.09Q188.22-6.67 191.52-6.67ZM227.72 0L208.43 0 208.43-7.32 212.22-7.32 212.22-29.83 208.43-29.83 208.43-36.5 223.94-38.09 223.94-7.32 227.72-7.32 227.72 0ZM244.64 0.44L244.64 0.44Q240.05 0.44 236.71-1.2 233.38-2.83 231.59-5.86 229.79-8.89 229.79-13.06L229.79-13.06Q229.79-17.26 231.59-20.29 233.38-23.32 236.71-24.96 240.05-26.61 244.64-26.61L244.64-26.61Q249.23-26.61 252.56-24.96 255.89-23.32 257.69-20.29 259.48-17.26 259.48-13.06L259.48-13.06Q259.48-8.89 257.69-5.86 255.89-2.83 252.56-1.2 249.23 0.44 244.64 0.44ZM244.64-6.67L244.64-6.67Q247.93-6.67 247.93-13.09L247.93-13.09Q247.93-19.51 244.64-19.51L244.64-19.51Q241.34-19.51 241.34-13.09L241.34-13.09Q241.34-6.67 244.64-6.67ZM275.59-6.71L283.33-6.71Q288.09-6.71 290.52-4.79 292.95-2.86 292.95 0.71L292.95 0.71Q292.95 3.81 290.84 5.93 288.73 8.06 284.94 9.13 281.16 10.21 276.1 10.21L276.1 10.21Q271.1 10.21 267.96 9.31 264.82 8.42 263.37 6.95 261.92 5.47 261.92 3.74L261.92 3.74Q261.92 2.42 262.91 1.34 263.9 0.27 265.43-0.22L265.43-0.22Q263.68-1.64 263.68-3.93L263.68-3.93Q263.68-5.96 265.13-7.34 266.58-8.72 269.27-9.38L269.27-9.38Q266-10.33 263.83-12.35 261.67-14.38 261.67-17.5L261.67-17.5Q261.67-21.61 265.46-24.11 269.24-26.61 276.52-26.61L276.52-26.61Q280.35-26.61 283.38-25.63L283.38-25.63 293.53-26.64 293.53-19.07 290.46-19.07Q290.63-18.31 290.63-17.5L290.63-17.5Q290.63-13.4 286.72-10.93 282.82-8.45 275.59-8.45L275.59-8.45Q273.83-8.45 273.83-7.59L273.83-7.59Q273.83-6.71 275.59-6.71L275.59-6.71ZM276.52-21.44L276.52-21.44Q275.03-21.46 274-20.42 272.98-19.38 272.98-17.55L272.98-17.55Q272.98-15.7 273.99-14.65 275-13.6 276.52-13.62L276.52-13.62Q278.03-13.65 279.04-14.69 280.06-15.72 280.06-17.55L280.06-17.55Q280.06-19.36 279.04-20.39 278.03-21.41 276.52-21.44ZM269.34 2.37L269.34 2.37Q269.34 3.83 270.85 4.68 272.37 5.52 275.37 5.52L275.37 5.52Q278.64 5.52 280.08 4.76 281.52 4 281.52 2.83L281.52 2.83Q281.52 1.61 279.77 1.61L279.77 1.61 272.27 1.61Q270.78 1.61 269.51 1.42L269.51 1.42Q269.34 1.88 269.34 2.37ZM314.77 0L295.49 0 295.49-7.32 299.27-7.32 299.27-18.53 295.49-18.53 295.49-25.2 310.99-26.64 310.99-7.32 314.77-7.32 314.77 0ZM305.13-28.27L305.13-28.27Q301.93-28.27 300.01-29.81 298.1-31.35 298.1-33.89L298.1-33.89Q298.1-36.43 300-37.9 301.91-39.38 305.15-39.38L305.15-39.38Q308.47-39.38 310.32-37.94 312.16-36.5 312.16-33.89L312.16-33.89Q312.16-31.3 310.27-29.79 308.38-28.27 305.13-28.27ZM332.32 0.44L332.32 0.44Q325.07 0.44 320.96-3.21 316.85-6.86 316.85-13.33L316.85-13.33Q316.85-17.41 318.64-20.39 320.43-23.36 323.66-24.99 326.88-26.61 331.15-26.61L331.15-26.61Q335.33-26.61 338.31-25.09 341.28-23.56 342.86-20.84 344.43-18.12 344.43-14.55L344.43-14.55Q344.43-13.72 344.36-12.95 344.29-12.18 344.19-11.55L344.19-11.55 328.49-11.55Q328.91-9.06 330.75-7.97 332.59-6.88 335.25-6.88L335.25-6.88Q337.5-6.88 339.54-7.68 341.58-8.47 342.99-9.67L342.99-9.67 343.65-9.38 343.65-2.37Q342.48-1.56 340.62-0.93 338.77-0.29 336.61 0.07 334.45 0.44 332.32 0.44ZM331.79-20.61L331.79-20.61Q330.15-20.61 329.32-19.34 328.49-18.07 328.39-15.8L328.39-15.8 335.18-15.8Q335.08-18.07 334.26-19.34 333.45-20.61 331.79-20.61ZM362.47 0.44L362.47 0.44Q359.98 0.44 357.64-0.15 355.29-0.73 353.49-1.83L353.49-1.83 352.73 0 347.36 0 347.36-9.18 353.61-9.18Q354.17-7.28 355.56-6.18 356.95-5.08 358.59-5.08L358.59-5.08Q360.74-5.08 360.74-6.69L360.74-6.69Q360.74-7.86 359.77-8.5 358.81-9.13 357.28-9.57 355.76-10.01 354.05-10.52 352.34-11.04 350.81-11.93 349.29-12.82 348.32-14.37 347.36-15.92 347.36-18.43L347.36-18.43Q347.36-20.7 348.57-22.56 349.78-24.41 352.23-25.52 354.68-26.64 358.4-26.64L358.4-26.64Q360.79-26.64 362.83-26.14 364.87-25.63 366.65-24.54L366.65-24.54 367.23-26.17 372.6-26.17 372.6-17.77 366.35-17.77Q365.72-19.63 364.54-20.5 363.35-21.36 361.98-21.36L361.98-21.36Q359.59-21.36 359.59-19.9L359.59-19.9Q359.59-18.87 360.58-18.27 361.57-17.68 363.12-17.24 364.67-16.8 366.4-16.24 368.14-15.67 369.69-14.72 371.24-13.77 372.23-12.18 373.21-10.6 373.21-8.06L373.21-8.06Q373.21-4.17 370.42-1.87 367.62 0.44 362.47 0.44Z" opacity="1" transform="matrix(1,0,0,1,0,0)" fill="white" class="slogan-text-1" id="SvgjsPath2364"></path></svg></g></svg></g></svg></g></svg></g><g><svg viewBox="0 0 141.45492315465503 143.84766140961014" height="143.84766140961014" width="141.45492315465503"><g><svg xmlns="http://www.w3.org/2000/svg" xmlns:xlink="http://www.w3.org/1999/xlink" version="1.1" x="0" y="0" viewBox="2 2 59.00196990419953 60" style="enable-background:new 0 0 64 64;" xml:space="preserve" height="143.84766140961014" width="141.45492315465503" class="icon-icon-0" data-fill-palette-color="accent" id="SvgjsSvg2363"><path d="M49 55A7 7 0 0 0 56 62V54H49z" fill="black"></path><path d="M57.979 42.411C57.766 45.528 55.17 48 52 48V46C54.206 46 56 44.206 56 42A5 5 0 0 0 51 37C50.631 37 50.274 37.046 49.929 37.121A6 6 0 0 0 44 32C41.682 32 39.686 33.321 38.689 35.246 41.177 35.978 43 38.278 43 41H41C41 38.794 39.206 37 37 37A5 5 0 0 0 32 42 5 5 0 0 0 32 52H37C37 50.346 35.654 49 34 49V47C36.757 47 39 49.243 39 52H42C42 50.796 42.36 49.675 42.973 48.735 42.836 47.206 41.563 46 40 46V44A5.01 5.01 0 0 1 44.607 47.057 5.96 5.96 0 0 1 48 46V48C45.794 48 44 49.794 44 52H56A4.998 4.998 0 0 0 57.979 42.411M49 44C49 42.346 47.654 41 46 41V39C48.757 39 51 41.243 51 44z" fill="black"></path><rect x="44" y="54" width="2" height="2" fill="black"></rect><rect x="40" y="54" width="2" height="2" fill="black"></rect><rect x="36" y="54" width="2" height="2" fill="black"></rect><path d="M40 29A4 4 0 0 0 44 25V6A4 4 0 0 0 40 2H6A4 4 0 0 0 2 6V25A4 4 0 0 0 6 29zM4 6C4 4.897 4.897 4 6 4H40C41.103 4 42 4.897 42 6V23H4z" fill="black"></path><path d="M35 7A2 2 0 0 0 33.039 9.387L27.637 14.114A2 2 0 0 0 27 14 2 2 0 0 0 26.214 14.161L20.976 10.233C20.986 10.155 21 10.08 21 10A2 2 0 1 0 17.039 10.387L11.637 15.114A2 2 0 0 0 11 15 2 2 0 1 0 12.961 16.613L18.363 11.886C18.564 11.955 18.776 12 19 12A2 2 0 0 0 19.786 11.839L25.024 15.767C25.014 15.845 25 15.92 25 16A2 2 0 1 0 28.961 15.613L34.363 10.886C34.564 10.955 34.776 11 35 11A2 2 0 1 0 35 7" fill="black"></path><path d="M52 13H46V15H52C53.654 15 55 16.346 55 18V31.586L52.707 29.293 51.293 30.707 56 35.414 60.707 30.707 59.293 29.293 57 31.586V18C57 15.243 54.757 13 52 13" fill="black"></path><path d="M9 46V36.414L11.293 38.707 12.707 37.293 8 32.586 3.293 37.293 4.707 38.707 7 36.414V46C7 48.757 9.243 51 12 51H24V49H12C10.346 49 9 47.654 9 46" fill="black"></path><polygon points="19.429,31 18.286,35 15,35 15,37 31,37 31,35 27.714,35 26.571,31 " fill="black"></polygon></svg></g></svg></g></svg></g><defs><mask></mask></defs><mask><g id="SvgjsG2362"><svg viewBox="0 0 395.52 103.32573598322556" height="103.32573598322556" width="395.52"><g><svg viewBox="0 0 550.6336490065319 143.84766140961014" height="103.32573598322556" width="395.52"><g transform="matrix(1,0,0,1,155.11364900653192,19.880537864859292)"><svg viewBox="0 0 395.52 104.08658567989156" height="104.08658567989156" width="395.52"><g id="SvgjsG2361"><svg viewBox="0 0 395.52 104.08658567989156" height="104.08658567989156" width="395.52" id="SvgjsSvg2360"><g><svg viewBox="0 0 395.52 57.8573249795696" height="57.8573249795696" width="395.52"><g transform="matrix(1,0,0,1,0,0)"><svg width="395.52" viewBox="1.56 -38.87 268.86 39.33" height="57.8573249795696" data-palette-color="url(#ec024954-5569-4fc5-a812-d05b80fafc7c)"><path d="M40.38 0L26.78 0.02 13.43-22.22 13.43-8.42 17.33-8.42 17.33 0 1.56 0 1.56-8.42 5.47-8.42 5.47-30.44 1.56-30.44 1.56-38.87 19.02-38.87 32.42-16.63 32.42-30.44 28.52-30.44 28.52-38.87 44.29-38.87 44.29-30.44 40.38-30.44 40.38 0ZM61.52 0.44L61.52 0.44Q54.27 0.44 50.16-3.21 46.04-6.86 46.04-13.33L46.04-13.33Q46.04-17.41 47.84-20.39 49.63-23.36 52.85-24.99 56.08-26.61 60.35-26.61L60.35-26.61Q64.52-26.61 67.5-25.09 70.48-23.56 72.06-20.84 73.63-18.12 73.63-14.55L73.63-14.55Q73.63-13.72 73.56-12.95 73.48-12.18 73.39-11.55L73.39-11.55 57.69-11.55Q58.1-9.06 59.95-7.97 61.79-6.88 64.45-6.88L64.45-6.88Q66.7-6.88 68.74-7.68 70.77-8.47 72.19-9.67L72.19-9.67 72.85-9.38 72.85-2.37Q71.68-1.56 69.82-0.93 67.97-0.29 65.81 0.07 63.64 0.44 61.52 0.44ZM60.98-20.61L60.98-20.61Q59.35-20.61 58.52-19.34 57.69-18.07 57.59-15.8L57.59-15.8 64.38-15.8Q64.28-18.07 63.46-19.34 62.64-20.61 60.98-20.61ZM88.4 0.46L88.4 0.46Q79.37 0.46 79.37-9.69L79.37-9.69 79.37-18.53 75.95-18.53 75.95-25.2 91.08-26.64 91.08-9.67Q91.08-8.18 91.74-7.52 92.4-6.86 93.43-6.86L93.43-6.86Q95.26-6.86 96.26-8.74L96.26-8.74 96.26-18.53 94.06-18.53 94.06-25.2 107.98-26.64 107.98-7.32 111.4-7.32 111.4 0 96.5 0 96.5-2.86Q95.04-1.29 93.02-0.42 91.01 0.46 88.4 0.46ZM135.25 0L114.37 0 114.37-7.32 117.91-7.32 117.91-18.53 114.37-18.53 114.37-25.2 129.39-26.64 129.39-21.63Q130.83-24.29 133.37-25.51 135.91-26.73 138.22-26.73L138.22-26.73 138.22-16.24Q136.03-16.99 134.2-16.99L134.2-16.99Q132.98-16.99 131.63-16.56 130.29-16.14 129.63-15.41L129.63-15.41 129.63-7.32 135.25-7.32 135.25 0ZM148.99 0.44L148.99 0.44Q146.47 0.44 144.51-0.57 142.54-1.59 141.43-3.37 140.32-5.15 140.32-7.47L140.32-7.47Q140.32-11.08 143.11-13.23 145.89-15.38 150.53-15.38L150.53-15.38Q152.14-15.38 153.6-15.19 155.07-14.99 156.58-14.53L156.58-14.53 156.58-15.06Q156.58-17.29 155.23-18.29 153.87-19.29 150.89-19.29L150.89-19.29Q148.74-19.29 146.55-18.73 144.35-18.16 142.54-17.16L142.54-17.16 141.88-17.46 141.88-24.58Q144.45-25.59 147.71-26.1 150.97-26.61 154.26-26.61L154.26-26.61Q161.56-26.61 164.93-24.17 168.3-21.73 168.3-16.33L168.3-16.33 168.3-7.32 171.47-7.32 171.47 0 158.14 0 156.95-3.83Q155.8-1.83 153.69-0.7 151.58 0.44 148.99 0.44ZM154.09-5.81L154.09-5.81Q154.75-5.81 155.47-6.04 156.19-6.27 156.58-6.67L156.58-6.67 156.58-10.74Q155.97-11.01 155.35-11.11 154.73-11.21 154.19-11.21L154.19-11.21Q152.94-11.21 152.1-10.47 151.26-9.74 151.26-8.52L151.26-8.52Q151.26-7.28 152.04-6.54 152.82-5.81 154.09-5.81ZM192.93 0L173.64 0 173.64-7.32 177.43-7.32 177.43-29.83 173.64-29.83 173.64-36.5 189.15-38.09 189.15-7.32 192.93-7.32 192.93 0ZM212.73 0L195.03 0 195.03-8.42 198.94-8.42 198.94-30.44 195.03-30.44 195.03-38.87 212.75-38.87Q223.57-38.87 229.21-33.9 234.85-28.93 234.85-19.38L234.85-19.38Q234.85-9.86 229.23-4.93 223.62 0 212.73 0L212.73 0ZM211.63-30.69L211.63-8.18 212.97-8.18Q217.27-8.18 219.13-10.78 220.98-13.38 220.98-19.46L220.98-19.46Q220.98-25.51 219.13-28.1 217.27-30.69 212.97-30.69L212.97-30.69 211.63-30.69ZM260.55 0L247.2 0 239.66-18.85 237.34-18.85 237.34-26.17 254.99-26.17 254.99-18.85 252.06-18.85 256.31-6.88 260.97-18.85 258.04-18.85 258.04-26.17 270.42-26.17 270.42-18.85 268.1-18.85 260.55 0Z" opacity="1" transform="matrix(1,0,0,1,0,0)" fill="black" class="wordmark-text-0" id="SvgjsPath2359"></path></svg></g></svg></g><g transform="matrix(1,0,0,1,75.54432,71.51605083144648)"><svg viewBox="0 0 244.43135999999998 32.570534848445085" height="32.570534848445085" width="244.43135999999998"><g transform="matrix(1,0,0,1,0,0)"><svg width="244.43135999999998" viewBox="1.12 -39.38 372.09 49.59" height="32.570534848445085" data-palette-color="url(#1bf2ee64-e9ac-49d0-9a90-cab88c2bba90)"><path d="M34.3 0L7.45 0 7.45-8.42 14.53-8.42 14.53-30.93 10.16-30.93 9.18-22.71 1.12-22.71 1.12-38.87 40.63-38.87 40.63-22.71 32.57-22.71 31.59-30.93 27.22-30.93 27.22-8.42 34.3-8.42 34.3 0ZM56.32 0.44L56.32 0.44Q49.07 0.44 44.96-3.21 40.84-6.86 40.84-13.33L40.84-13.33Q40.84-17.41 42.64-20.39 44.43-23.36 47.65-24.99 50.88-26.61 55.15-26.61L55.15-26.61Q59.32-26.61 62.3-25.09 65.28-23.56 66.86-20.84 68.43-18.12 68.43-14.55L68.43-14.55Q68.43-13.72 68.36-12.95 68.28-12.18 68.19-11.55L68.19-11.55 52.49-11.55Q52.9-9.06 54.75-7.97 56.59-6.88 59.25-6.88L59.25-6.88Q61.5-6.88 63.54-7.68 65.57-8.47 66.99-9.67L66.99-9.67 67.65-9.38 67.65-2.37Q66.48-1.56 64.62-0.93 62.77-0.29 60.61 0.07 58.44 0.44 56.32 0.44ZM55.78-20.61L55.78-20.61Q54.15-20.61 53.32-19.34 52.49-18.07 52.39-15.8L52.39-15.8 59.18-15.8Q59.08-18.07 58.26-19.34 57.44-20.61 55.78-20.61ZM85.93 0.44L85.93 0.44Q79 0.44 75.01-3.21 71.02-6.86 71.02-13.33L71.02-13.33Q71.02-17.38 72.71-20.36 74.41-23.34 77.25-24.98 80.1-26.61 83.52-26.61L83.52-26.61Q86.01-26.61 87.89-25.74 89.77-24.88 91.08-23.36L91.08-23.36 92.06-26.17 97.46-26.17 97.46-15.33 90.42-15.33Q90.23-17.43 89.28-18.47 88.33-19.51 86.88-19.51L86.88-19.51Q85.25-19.51 83.97-18.1 82.69-16.7 82.69-13.43L82.69-13.43Q82.69-10.03 84.47-8.58 86.25-7.13 88.98-7.13L88.98-7.13Q91.04-7.13 92.95-7.93 94.87-8.74 96.26-9.91L96.26-9.91 96.92-9.62 96.92-2.37Q95.77-1.56 93.96-0.93 92.16-0.29 90.06 0.07 87.96 0.44 85.93 0.44ZM117.42 0L99.97 0 99.97-7.32 103.51-7.32 103.51-29.98 99.97-29.98 99.97-36.65 115.23-38.09 115.23-23.44Q118.43-26.61 123.65-26.61L123.65-26.61Q128.07-26.61 130.13-24.11 132.19-21.61 132.19-16.58L132.19-16.58 132.19-7.32 135.61-7.32 135.61 0 120.48 0 120.48-16.58Q120.48-17.99 119.87-18.64 119.26-19.29 118.25-19.29L118.25-19.29Q117.42-19.29 116.61-18.8 115.79-18.31 115.23-17.46L115.23-17.46 115.23-7.32 117.42-7.32 117.42 0ZM156.04 0L138.59 0 138.59-7.32 142.13-7.32 142.13-18.53 138.59-18.53 138.59-25.2 153.6-26.64 153.6-23.32Q155.12-24.9 157.39-25.77 159.66-26.64 162.27-26.64L162.27-26.64Q166.69-26.64 168.75-24.13 170.82-21.63 170.82-16.6L170.82-16.6 170.82-7.32 174.23-7.32 174.23 0 159.1 0 159.1-16.6Q159.1-18.02 158.49-18.66 157.88-19.31 156.87-19.31L156.87-19.31Q156.04-19.31 155.23-18.82 154.41-18.33 153.85-17.48L153.85-17.48 153.85-7.32 156.04-7.32 156.04 0ZM191.52 0.44L191.52 0.44Q186.93 0.44 183.59-1.2 180.26-2.83 178.47-5.86 176.67-8.89 176.67-13.06L176.67-13.06Q176.67-17.26 178.47-20.29 180.26-23.32 183.59-24.96 186.93-26.61 191.52-26.61L191.52-26.61Q196.11-26.61 199.44-24.96 202.77-23.32 204.57-20.29 206.36-17.26 206.36-13.06L206.36-13.06Q206.36-8.89 204.57-5.86 202.77-2.83 199.44-1.2 196.11 0.44 191.52 0.44ZM191.52-6.67L191.52-6.67Q194.81-6.67 194.81-13.09L194.81-13.09Q194.81-19.51 191.52-19.51L191.52-19.51Q188.22-19.51 188.22-13.09L188.22-13.09Q188.22-6.67 191.52-6.67ZM227.72 0L208.43 0 208.43-7.32 212.22-7.32 212.22-29.83 208.43-29.83 208.43-36.5 223.94-38.09 223.94-7.32 227.72-7.32 227.72 0ZM244.64 0.44L244.64 0.44Q240.05 0.44 236.71-1.2 233.38-2.83 231.59-5.86 229.79-8.89 229.79-13.06L229.79-13.06Q229.79-17.26 231.59-20.29 233.38-23.32 236.71-24.96 240.05-26.61 244.64-26.61L244.64-26.61Q249.23-26.61 252.56-24.96 255.89-23.32 257.69-20.29 259.48-17.26 259.48-13.06L259.48-13.06Q259.48-8.89 257.69-5.86 255.89-2.83 252.56-1.2 249.23 0.44 244.64 0.44ZM244.64-6.67L244.64-6.67Q247.93-6.67 247.93-13.09L247.93-13.09Q247.93-19.51 244.64-19.51L244.64-19.51Q241.34-19.51 241.34-13.09L241.34-13.09Q241.34-6.67 244.64-6.67ZM275.59-6.71L283.33-6.71Q288.09-6.71 290.52-4.79 292.95-2.86 292.95 0.71L292.95 0.71Q292.95 3.81 290.84 5.93 288.73 8.06 284.94 9.13 281.16 10.21 276.1 10.21L276.1 10.21Q271.1 10.21 267.96 9.31 264.82 8.42 263.37 6.95 261.92 5.47 261.92 3.74L261.92 3.74Q261.92 2.42 262.91 1.34 263.9 0.27 265.43-0.22L265.43-0.22Q263.68-1.64 263.68-3.93L263.68-3.93Q263.68-5.96 265.13-7.34 266.58-8.72 269.27-9.38L269.27-9.38Q266-10.33 263.83-12.35 261.67-14.38 261.67-17.5L261.67-17.5Q261.67-21.61 265.46-24.11 269.24-26.61 276.52-26.61L276.52-26.61Q280.35-26.61 283.38-25.63L283.38-25.63 293.53-26.64 293.53-19.07 290.46-19.07Q290.63-18.31 290.63-17.5L290.63-17.5Q290.63-13.4 286.72-10.93 282.82-8.45 275.59-8.45L275.59-8.45Q273.83-8.45 273.83-7.59L273.83-7.59Q273.83-6.71 275.59-6.71L275.59-6.71ZM276.52-21.44L276.52-21.44Q275.03-21.46 274-20.42 272.98-19.38 272.98-17.55L272.98-17.55Q272.98-15.7 273.99-14.65 275-13.6 276.52-13.62L276.52-13.62Q278.03-13.65 279.04-14.69 280.06-15.72 280.06-17.55L280.06-17.55Q280.06-19.36 279.04-20.39 278.03-21.41 276.52-21.44ZM269.34 2.37L269.34 2.37Q269.34 3.83 270.85 4.68 272.37 5.52 275.37 5.52L275.37 5.52Q278.64 5.52 280.08 4.76 281.52 4 281.52 2.83L281.52 2.83Q281.52 1.61 279.77 1.61L279.77 1.61 272.27 1.61Q270.78 1.61 269.51 1.42L269.51 1.42Q269.34 1.88 269.34 2.37ZM314.77 0L295.49 0 295.49-7.32 299.27-7.32 299.27-18.53 295.49-18.53 295.49-25.2 310.99-26.64 310.99-7.32 314.77-7.32 314.77 0ZM305.13-28.27L305.13-28.27Q301.93-28.27 300.01-29.81 298.1-31.35 298.1-33.89L298.1-33.89Q298.1-36.43 300-37.9 301.91-39.38 305.15-39.38L305.15-39.38Q308.47-39.38 310.32-37.94 312.16-36.5 312.16-33.89L312.16-33.89Q312.16-31.3 310.27-29.79 308.38-28.27 305.13-28.27ZM332.32 0.44L332.32 0.44Q325.07 0.44 320.96-3.21 316.85-6.86 316.85-13.33L316.85-13.33Q316.85-17.41 318.64-20.39 320.43-23.36 323.66-24.99 326.88-26.61 331.15-26.61L331.15-26.61Q335.33-26.61 338.31-25.09 341.28-23.56 342.86-20.84 344.43-18.12 344.43-14.55L344.43-14.55Q344.43-13.72 344.36-12.95 344.29-12.18 344.19-11.55L344.19-11.55 328.49-11.55Q328.91-9.06 330.75-7.97 332.59-6.88 335.25-6.88L335.25-6.88Q337.5-6.88 339.54-7.68 341.58-8.47 342.99-9.67L342.99-9.67 343.65-9.38 343.65-2.37Q342.48-1.56 340.62-0.93 338.77-0.29 336.61 0.07 334.45 0.44 332.32 0.44ZM331.79-20.61L331.79-20.61Q330.15-20.61 329.32-19.34 328.49-18.07 328.39-15.8L328.39-15.8 335.18-15.8Q335.08-18.07 334.26-19.34 333.45-20.61 331.79-20.61ZM362.47 0.44L362.47 0.44Q359.98 0.44 357.64-0.15 355.29-0.73 353.49-1.83L353.49-1.83 352.73 0 347.36 0 347.36-9.18 353.61-9.18Q354.17-7.28 355.56-6.18 356.95-5.08 358.59-5.08L358.59-5.08Q360.74-5.08 360.74-6.69L360.74-6.69Q360.74-7.86 359.77-8.5 358.81-9.13 357.28-9.57 355.76-10.01 354.05-10.52 352.34-11.04 350.81-11.93 349.29-12.82 348.32-14.37 347.36-15.92 347.36-18.43L347.36-18.43Q347.36-20.7 348.57-22.56 349.78-24.41 352.23-25.52 354.68-26.64 358.4-26.64L358.4-26.64Q360.79-26.64 362.83-26.14 364.87-25.63 366.65-24.54L366.65-24.54 367.23-26.17 372.6-26.17 372.6-17.77 366.35-17.77Q365.72-19.63 364.54-20.5 363.35-21.36 361.98-21.36L361.98-21.36Q359.59-21.36 359.59-19.9L359.59-19.9Q359.59-18.87 360.58-18.27 361.57-17.68 363.12-17.24 364.67-16.8 366.4-16.24 368.14-15.67 369.69-14.72 371.24-13.77 372.23-12.18 373.21-10.6 373.21-8.06L373.21-8.06Q373.21-4.17 370.42-1.87 367.62 0.44 362.47 0.44Z" opacity="1" transform="matrix(1,0,0,1,0,0)" fill="black" class="slogan-text-1" id="SvgjsPath2358"></path></svg></g></svg></g></svg></g></svg></g><g><svg viewBox="0 0 141.45492315465503 143.84766140961014" height="143.84766140961014" width="141.45492315465503"><g><svg xmlns="http://www.w3.org/2000/svg" xmlns:xlink="http://www.w3.org/1999/xlink" version="1.1" x="0" y="0" viewBox="2 2 59.00196990419953 60" style="enable-background:new 0 0 64 64;" xml:space="preserve" height="143.84766140961014" width="141.45492315465503" class="icon-icon-0" data-fill-palette-color="accent" id="SvgjsSvg2357"><path d="M49 55A7 7 0 0 0 56 62V54H49z" fill="black"></path><path d="M57.979 42.411C57.766 45.528 55.17 48 52 48V46C54.206 46 56 44.206 56 42A5 5 0 0 0 51 37C50.631 37 50.274 37.046 49.929 37.121A6 6 0 0 0 44 32C41.682 32 39.686 33.321 38.689 35.246 41.177 35.978 43 38.278 43 41H41C41 38.794 39.206 37 37 37A5 5 0 0 0 32 42 5 5 0 0 0 32 52H37C37 50.346 35.654 49 34 49V47C36.757 47 39 49.243 39 52H42C42 50.796 42.36 49.675 42.973 48.735 42.836 47.206 41.563 46 40 46V44A5.01 5.01 0 0 1 44.607 47.057 5.96 5.96 0 0 1 48 46V48C45.794 48 44 49.794 44 52H56A4.998 4.998 0 0 0 57.979 42.411M49 44C49 42.346 47.654 41 46 41V39C48.757 39 51 41.243 51 44z" fill="black"></path><rect x="44" y="54" width="2" height="2" fill="black"></rect><rect x="40" y="54" width="2" height="2" fill="black"></rect><rect x="36" y="54" width="2" height="2" fill="black"></rect><path d="M40 29A4 4 0 0 0 44 25V6A4 4 0 0 0 40 2H6A4 4 0 0 0 2 6V25A4 4 0 0 0 6 29zM4 6C4 4.897 4.897 4 6 4H40C41.103 4 42 4.897 42 6V23H4z" fill="black"></path><path d="M35 7A2 2 0 0 0 33.039 9.387L27.637 14.114A2 2 0 0 0 27 14 2 2 0 0 0 26.214 14.161L20.976 10.233C20.986 10.155 21 10.08 21 10A2 2 0 1 0 17.039 10.387L11.637 15.114A2 2 0 0 0 11 15 2 2 0 1 0 12.961 16.613L18.363 11.886C18.564 11.955 18.776 12 19 12A2 2 0 0 0 19.786 11.839L25.024 15.767C25.014 15.845 25 15.92 25 16A2 2 0 1 0 28.961 15.613L34.363 10.886C34.564 10.955 34.776 11 35 11A2 2 0 1 0 35 7" fill="black"></path><path d="M52 13H46V15H52C53.654 15 55 16.346 55 18V31.586L52.707 29.293 51.293 30.707 56 35.414 60.707 30.707 59.293 29.293 57 31.586V18C57 15.243 54.757 13 52 13" fill="black"></path><path d="M9 46V36.414L11.293 38.707 12.707 37.293 8 32.586 3.293 37.293 4.707 38.707 7 36.414V46C7 48.757 9.243 51 12 51H24V49H12C10.346 49 9 47.654 9 46" fill="black"></path><polygon points="19.429,31 18.286,35 15,35 15,37 31,37 31,35 27.714,35 26.571,31 " fill="black"></polygon></svg></g></svg></g></svg></g><defs><mask></mask></defs></svg><rect width="395.52" height="103.32573598322556" fill="black" stroke="none" visibility="hidden"></rect></g></mask></svg><rect width="395.52" height="103.32573598322556" fill="black" stroke="none" visibility="hidden"></rect></g></mask><linearGradient x1="0" x2="1" y1="0.548" y2="0.55" id="1bf2ee64-e9ac-49d0-9a90-cab88c2bba90"><stop stop-color="#ff6cab" offset="0"></stop><stop stop-color="#7366ff" offset="1"></stop></linearGradient><rect width="395.5217266372156" height="103.32897342800489" fill="url(#1bf2ee64-e9ac-49d0-9a90-cab88c2bba90)" mask="url(#9a2901ce-8ffa-4214-986e-9b1173841f1c)" data-fill-palette-color="secondary"></rect></svg><rect width="395.52" height="103.32573598322556" fill="none" stroke="none" visibility="hidden"></rect></g></svg></g></svg>